<svg xmlns="http://www.w3.org/2000/svg" xmlns:xlink="http://www.w3.org/1999/xlink" viewBox="0 0 115 44" fill="#fff" fill-rule="evenodd" stroke="#000" stroke-linecap="round" stroke-linejoin="round"><use xlink:href="#A" x=".5" y=".5"/><symbol id="A" overflow="visible"><g stroke="none"><path d="M44.086 17.173h-3.682v-2.198h9.86v2.198h-3.682v11h-2.495zm8.45 9.204c1-.005 1.994-.158 2.95-.455l.38 1.82a10.35 10.35 0 0 1-3.543.632c-3.032 0-4.08-1.4-4.08-3.72v-2.526c0-2.04.9-3.8 3.998-3.8s3.8 1.8 3.8 3.878v2.06h-5.37v.493c0 1.156.4 1.6 1.876 1.6zm-1.895-4.06h3.07v-.474c0-.9-.278-1.54-1.465-1.54s-1.604.632-1.604 1.54zm11.838-1.786a18.63 18.63 0 0 0-2.526 1.41v6.215h-2.444v-9.645h2.04l.158 1.067c.783-.53 1.632-.954 2.526-1.263zm5.899 0a18.63 18.63 0 0 0-2.526 1.41v6.215h-2.444v-9.645h2.04l.158 1.067c.783-.53 1.632-.954 2.526-1.263zm8.073 7.617h-1.977l-.177-.632a5.29 5.29 0 0 1-2.868.853c-1.762 0-2.526-1.206-2.526-2.868 0-1.958.853-2.7 2.8-2.7h2.318v-1c0-1.067-.297-1.446-1.838-1.446a13.49 13.49 0 0 0-2.672.297l-.297-1.838c1.076-.298 2.187-.451 3.303-.455 3.032 0 3.922 1.067 3.922 3.487zm-2.413-3.644h-1.78c-.8 0-1 .215-1 .947s.215.973.973.973a3.79 3.79 0 0 0 1.819-.493zm9.84-8.2a7.15 7.15 0 0 0-1.383-.158c-.947 0-1.086.417-1.086 1.15v1.206h2.45l-.14 1.895h-2.318v7.718h-2.413v-7.682h-1.547v-1.895h1.54v-1.37c0-2.002.928-2.988 3.07-2.988a7.64 7.64 0 0 1 2.078.278zM88.59 28.34c-3.303 0-4.194-1.82-4.194-3.8v-2.417c0-1.977.9-3.8 4.194-3.8s4.2 1.82 4.2 3.8v2.438c-.006 1.964-.897 3.8-4.2 3.8zm0-7.977c-1.263 0-1.78.575-1.78 1.66v2.596c0 1.086.493 1.66 1.78 1.66s1.78-.575 1.78-1.66v-2.586c0-1.093-.5-1.667-1.78-1.667zm10.4.158a18.63 18.63 0 0 0-2.526 1.41v6.215h-2.44v-9.645h2.04l.158 1.067c.783-.53 1.632-.954 2.526-1.263zm6.64 7.627v-6.727c0-.512-.215-.77-.77-.77-.888.1-1.748.376-2.526.815v6.7h-2.4v-9.645h1.838l.24.815a9.64 9.64 0 0 1 3.86-1.01 1.83 1.83 0 0 1 1.819 1.03c1.204-.616 2.527-.967 3.878-1.03 1.604 0 2.18 1.13 2.18 2.85v6.986h-2.413v-6.727c0-.512-.215-.77-.77-.77a6.39 6.39 0 0 0-2.526.815v6.7z" fill="#000" fill-rule="nonzero"/><path d="M24.535 29.207v-.088l-11.63-6.716V35.83l11.63 6.716zm0-14.994v13.433l-11.63-6.716V7.497z" fill="#5c4ee5"/><path d="M25.81 27.646l11.635-6.716V7.497L25.81 14.213z" fill="#4040b2"/><path d="M0 13.433l11.63 6.716V6.716L0 0z" fill="#5c4ee5"/></g></symbol></svg>